<svg width="30" height="9" viewBox="0 0 30 9" fill="none" xmlns="http://www.w3.org/2000/svg">
<path d="M9.01705 0.272727L7.56818 9H5.59091L3.20455 4.41477H3.15341L2.38636 9H0.0170455L1.46591 0.272727H3.47727L5.82955 4.84091H5.89773L6.64773 0.272727H9.01705ZM8.68892 9L10.1378 0.272727H16.4276L16.1037 2.18182H12.1832L11.9446 3.68182H15.5412L15.2173 5.59091H11.6207L11.3821 7.09091H15.2855L14.9616 9H8.68892ZM18.3697 9L17.2447 0.272727H19.8867L20.1935 5.64205H20.2617L22.5629 0.272727H24.6424L25.1708 5.65909H25.239L27.3185 0.272727H29.9606L25.9379 9H23.6708L23.006 4.125H22.9379L20.6367 9H18.3697Z" fill="white"/>
</svg>
